<svg id="Capa_1" enable-background="new 0 0 512 512" height="512" viewBox="0 0 512 512" width="512" xmlns="http://www.w3.org/2000/svg"><g><g><g><path d="m499.068 295.503h-486.136c-7.142 0-12.932-5.79-12.932-12.932v-73.206c0-7.142 5.79-12.932 12.932-12.932h486.136c7.142 0 12.932 5.79 12.932 12.932v73.206c0 7.142-5.79 12.932-12.932 12.932z" fill="#e0d3ce"/><path d="m499.068 196.433h-80.682v99.07h80.682c7.142 0 12.932-5.79 12.932-12.932v-73.206c0-7.142-5.79-12.932-12.932-12.932z" fill="#756f6f"/><path d="m511.996 209.361v73.214c0 7.139-5.791 12.93-12.93 12.93h-38.78c7.139 0 12.93-5.791 12.93-12.93v-73.214c0-7.139-5.791-12.93-12.93-12.93h38.78c7.139 0 12.93 5.791 12.93 12.93z" fill="#5b5555"/></g><g><g><g><path d="m433.224 465.793c-6.89 6.89-18.06 6.89-24.95 0l-131.469-131.468 24.95-24.95 131.469 131.469c6.89 6.889 6.89 18.059 0 24.949z" fill="#1785f8"/><g><path d="m314.333 371.852 93.941 93.941c6.89 6.89 18.06 6.89 24.95 0s6.89-18.06 0-24.95l-93.941-93.941z" fill="#efe2dd"/></g></g><circle cx="211.826" cy="242.476" fill="#31a7fb" r="126.792"/><g fill="#1c96f9"><path d="m190.717 153.023c-19.028 4.461-35.768 14.845-48.182 29.103-4.965-5.182-8.015-12.208-8.015-19.944 0-15.927 12.918-28.845 28.845-28.845 12.724-.001 23.53 8.251 27.352 19.686z"/><path d="m338.618 242.48c0 70.022-56.768 126.79-126.79 126.79-5.295 0-10.504-.324-15.626-.96 62.646-7.7 111.153-61.104 111.153-125.831 0-64.738-48.508-118.141-111.164-125.841 5.123-.636 10.342-.96 15.637-.96 70.022.001 126.79 56.769 126.79 126.802z"/></g></g><circle cx="211.826" cy="242.476" fill="#d4f2f6" r="91.895"/><g fill="#a8e7ef"><path d="m192.211 162.181c0 15.927-12.919 28.845-28.845 28.845-8.19 0-15.587-3.42-20.83-8.901 12.414-14.258 29.154-24.642 48.182-29.103.968 2.875 1.493 5.956 1.493 9.159z"/><path d="m303.72 242.48c0 50.751-41.142 91.893-91.892 91.893-5.424 0-10.73-.475-15.896-1.37 43.18-7.527 75.996-45.197 75.996-90.523 0-45.337-32.816-83.006-75.996-90.534 5.166-.895 10.471-1.37 15.896-1.37 50.75 0 91.892 41.142 91.892 91.904z"/></g></g><path d="m483.873 227.287c-7.875-7.874-20.689-7.874-28.564 0-5.94 5.94-7.393 14.689-4.372 22.01l-8.078 8.078c-3.017 3.017-3.017 7.909 0 10.927 1.509 1.509 3.487 2.263 5.464 2.263s3.955-.755 5.464-2.263l8.077-8.077c2.468 1.018 5.097 1.533 7.728 1.533 5.171 0 10.344-1.969 14.282-5.905l.001-.001c7.874-7.876 7.874-20.69-.002-28.565zm-10.925 17.638c-1.851 1.85-4.862 1.85-6.711 0-1.85-1.85-1.85-4.861 0-6.711.925-.925 2.14-1.387 3.355-1.387s2.431.462 3.355 1.387c1.85 1.85 1.85 4.86.001 6.711z" fill="#e0d3ce"/><g><path d="m81.177 121.903c-3.018-3.017-7.909-3.017-10.928 0l-6.141 6.141-6.141-6.141c-3.018-3.017-7.909-3.017-10.928 0-3.017 3.017-3.017 7.909 0 10.927l6.142 6.142-6.142 6.142c-3.017 3.017-3.017 7.909 0 10.927 1.509 1.509 3.487 2.263 5.464 2.263s3.955-.755 5.464-2.263l6.141-6.141 6.141 6.141c1.509 1.509 3.487 2.263 5.464 2.263s3.955-.755 5.464-2.263c3.017-3.017 3.017-7.909 0-10.927l-6.142-6.142 6.142-6.142c3.017-3.018 3.017-7.91 0-10.927z" fill="#bcea73"/><path d="m382.119 150.576 6.142-6.142c3.017-3.017 3.017-7.909 0-10.927-3.018-3.017-7.909-3.017-10.928 0l-6.141 6.141-6.141-6.141c-3.018-3.017-7.909-3.017-10.928 0-3.017 3.017-3.017 7.909 0 10.927l6.142 6.142-6.142 6.142c-3.017 3.017-3.017 7.909 0 10.927 1.509 1.509 3.487 2.263 5.464 2.263s3.955-.755 5.464-2.263l6.141-6.141 6.141 6.141c1.509 1.509 3.487 2.263 5.464 2.263s3.955-.755 5.464-2.263c3.017-3.017 3.017-7.909 0-10.927z" fill="#a8e7ef"/></g><g><circle cx="109.883" cy="66.528" fill="#a8e7ef" r="25.489"/><path d="m135.37 66.525c0 14.082-11.415 25.497-25.485 25.497-4.717 0-9.143-1.281-12.929-3.529 10.005-2.306 17.46-11.263 17.46-21.968 0-10.693-7.443-19.662-17.448-21.968 3.786-2.237 8.2-3.518 12.917-3.518 14.07.001 25.485 11.415 25.485 25.486z" fill="#70d9e6"/></g><g><circle cx="324.429" cy="89.444" fill="#64b9fc" r="22.91"/><path d="m347.337 89.441c0 12.658-10.26 22.918-22.907 22.918-4.24 0-8.219-1.152-11.621-3.172 8.993-2.073 15.694-10.124 15.694-19.745 0-9.611-6.69-17.673-15.683-19.746 3.403-2.01 7.371-3.162 11.611-3.162 12.646 0 22.906 10.26 22.906 22.907z" fill="#31a7fb"/></g><g><path d="m134.522 138.968c0-15.929 12.913-28.843 28.843-28.843s28.843 12.913 28.843 28.843-12.913 28.843-28.843 28.843-28.843-12.913-28.843-28.843" fill="#bcea73"/><path d="m148.736 163.823c11.322-2.61 19.758-12.746 19.758-24.858 0-12.1-8.422-22.249-19.745-24.859 4.284-2.531 9.279-3.981 14.617-3.981 15.922 0 28.839 12.917 28.839 28.839 0 15.935-12.917 28.852-28.839 28.852-5.337.001-10.346-1.449-14.63-3.993" fill="#99d53b"/></g></g><g><path d="m228.374 271.255c-1.774 0-3.556-.608-5.012-1.85-3.467-2.96-8.413-4.666-13.57-4.681-.023 0-.047 0-.071 0-5.131 0-10.057 1.675-13.526 4.6-3.263 2.751-8.138 2.336-10.887-.926-2.752-3.263-2.336-8.137.926-10.888 6.304-5.315 14.64-8.239 23.484-8.239h.122c8.89.026 17.257 3.003 23.556 8.38 3.245 2.771 3.631 7.647.86 10.893-1.53 1.791-3.699 2.711-5.882 2.711z" fill="#1c96f9"/><g><g><path d="m168.815 236.135c-4.268 0-7.772-3.459-7.772-7.726s3.413-7.726 7.681-7.726h.091c4.268 0 7.726 3.459 7.726 7.726s-3.459 7.726-7.726 7.726z" fill="#1c96f9"/></g></g></g></g><path d="m252.887 236.135c-4.268 0-7.772-3.459-7.772-7.726s3.413-7.726 7.681-7.726h.091c4.268 0 7.726 3.459 7.726 7.726s-3.458 7.726-7.726 7.726z" fill="#1c96f9"/></svg>