<svg id="Capa_1" enable-background="new 0 0 495.069 495.069" height="512" viewBox="0 0 495.069 495.069" width="512" xmlns="http://www.w3.org/2000/svg"><circle cx="247.534" cy="247.534" fill="#fee565" r="247.534"/><path d="m76.911 247.534c0-123.628 90.651-226.086 209.096-244.562-12.533-1.955-25.391-2.972-38.473-2.972-136.709 0-247.534 110.825-247.534 247.534s110.825 247.534 247.534 247.534c13.081 0 25.947-1.018 38.48-2.973-118.445-18.476-209.103-120.932-209.103-244.561z" fill="#fdd62f"/><g><path d="m247.534 367.184c-21.611 0-42.337-6.563-59.938-18.98-17.203-12.136-30.189-28.929-37.556-48.564-1.455-3.878.509-8.202 4.388-9.656 3.876-1.456 8.201.508 9.656 4.388 12.973 34.58 46.509 57.813 83.45 57.813s70.477-23.233 83.45-57.813c1.455-3.878 5.779-5.844 9.656-4.388 3.878 1.455 5.843 5.778 4.388 9.656-7.366 19.635-20.353 36.429-37.556 48.564-17.6 12.417-38.327 18.98-59.938 18.98z" fill="#685e67"/></g><g><path d="m195.509 219.679c-4.142 0-7.5-3.358-7.5-7.5 0-16.707-13.592-30.298-30.299-30.298s-30.299 13.592-30.299 30.298c0 4.142-3.358 7.5-7.5 7.5s-7.5-3.358-7.5-7.5c0-24.978 20.321-45.298 45.299-45.298s45.299 20.321 45.299 45.298c0 4.142-3.357 7.5-7.5 7.5z" fill="#685e67"/></g><g><path d="m376.157 219.679c-4.142 0-7.5-3.358-7.5-7.5 0-16.707-13.592-30.298-30.299-30.298s-30.299 13.592-30.299 30.298c0 4.142-3.358 7.5-7.5 7.5s-7.5-3.358-7.5-7.5c0-24.978 20.321-45.298 45.299-45.298s45.299 20.321 45.299 45.298c0 4.142-3.358 7.5-7.5 7.5z" fill="#685e67"/></g><g><path d="m42.691 288.007c-.813 0-1.64-.133-2.452-.414-3.915-1.354-5.99-5.625-4.636-9.54l11.058-31.97c1.354-3.915 5.625-5.99 9.54-4.636s5.99 5.625 4.636 9.54l-11.058 31.97c-1.074 3.102-3.979 5.05-7.088 5.05z" fill="#f37e7f"/></g><g><path d="m77.412 288.007c-.813 0-1.64-.133-2.452-.414-3.915-1.354-5.99-5.625-4.636-9.54l11.058-31.97c1.354-3.915 5.624-5.99 9.54-4.636 3.915 1.354 5.99 5.625 4.636 9.54l-11.058 31.97c-1.074 3.102-3.98 5.05-7.088 5.05z" fill="#f37e7f"/></g><g><path d="m407.6 288.007c-.813 0-1.64-.133-2.452-.414-3.915-1.354-5.99-5.625-4.636-9.54l11.058-31.97c1.354-3.915 5.625-5.99 9.54-4.636s5.99 5.625 4.636 9.54l-11.058 31.97c-1.074 3.102-3.98 5.05-7.088 5.05z" fill="#f37e7f"/></g><g><path d="m442.321 288.007c-.813 0-1.64-.133-2.452-.414-3.915-1.354-5.99-5.625-4.636-9.54l11.058-31.97c1.354-3.915 5.626-5.99 9.54-4.636 3.915 1.354 5.99 5.625 4.636 9.54l-11.058 31.97c-1.074 3.102-3.98 5.05-7.088 5.05z" fill="#f37e7f"/></g></svg>